<?xml version="1.0" encoding="utf-8"?>
<!-- Generator: Adobe Illustrator 22.1.0, SVG Export Plug-In . SVG Version: 6.00 Build 0)  -->
<svg version="1.1" id="Capa_1" xmlns="http://www.w3.org/2000/svg" xmlns:xlink="http://www.w3.org/1999/xlink" x="0px" y="0px"
	 viewBox="0 0 1072.6 369.2" style="enable-background:new 0 0 1072.6 369.2;" xml:space="preserve">
<style type="text/css">
	.st0{fill:#9C6FF3;}
	.st1{fill:#FFFFFF;}
	.st2{fill:#31D0D8;}
</style>
<title>mpb-logo</title>
<g>
	<path class="st0" d="M663.8,154.3L492.6,285.2v78.6h84.2V229.2h58.7v0c71.9,0,124-28.2,124-113.5c0-60.5-28.6-90.6-71.4-103l1.5,2
		C721.6,56.5,710,119,663.8,154.3z"/>
	<polygon class="st0" points="436.3,363.7 447.2,363.7 447.2,319.9 412.3,346.6 	"/>
	<path class="st0" d="M986.5,176c32.7-8.3,57.1-32.1,57.1-69.8c0-77-55.4-100.8-120.7-100.8H781.7v358.3h159.4
		c62,0,119.1-24.4,119.1-106.3C1060.2,206.5,1030.8,180.4,986.5,176z M865.8,70.3h57.1c31,0,35.4,25.4,35.4,36.5
		c0,25.5-10.5,40.5-27.7,40.5h-64.8V70.3z M937.8,299h-72v-87.4h65.9v0c23.8,0,42.6,13.3,42.6,46C974.3,286.8,954.9,299,937.8,299z"
		/>
	<path class="st1" d="M12.5,5.4v100.2c24.1-9.6,54-7.7,80.8,6.4c2.3,1.2,4.7,2.5,6.9,3.9c2.8,1.7,5.6,3.6,8.4,5.7L215,200.5
		L153.6,5.4H12.5z"/>
	<polygon class="st1" points="311.5,5.4 298.7,44.7 241.5,220.2 305.6,267.7 363.5,95.2 363.5,310.6 412.1,346.7 412.2,346.7 
		412.3,346.6 447.2,319.9 447.2,5.4 350.1,5.4 	"/>
	<path class="st1" d="M689.6,14.7l-1.5-2c-17.5-5.1-37.4-7.2-58.7-7.2H492.6v279.7l171.2-130.9C710,119,721.6,56.5,689.6,14.7z
		 M631,164.4h-54.2V70.3h51.4l0,0c18.3,0,46,0,46,45.4C674.3,153.3,651.5,164.4,631,164.4z"/>
	<path class="st2" d="M12.5,105.7v88.4v117.4l80.2,52.3h0.7v-64V112C66.4,98,36.6,96,12.5,105.7z"/>
	<polygon class="st2" points="363.5,310.6 363.5,363.7 389.5,363.7 412.1,346.7 	"/>
	<path class="st2" d="M237.1,233.9l-5.9,18L215,200.5l-106.5-78.9c-2.7-2-5.5-3.9-8.4-5.7L183,363.7h90.3l18.9-56.2l13.4-39.9
		l-64-47.5L237.1,233.9z"/>
</g>
</svg>
